<svg width="7283" height="3530" xmlns="http://www.w3.org/2000/svg" xmlns:xlink="http://www.w3.org/1999/xlink" xml:space="preserve" overflow="hidden"><g transform="translate(-574 -1181)"><rect x="2237.5" y="2470.5" width="120" height="1352" stroke="#000000" stroke-width="20.625" stroke-miterlimit="8" fill="none"/><rect x="1400.5" y="2470.5" width="120" height="585" stroke="#000000" stroke-width="20.625" stroke-miterlimit="8" fill="none"/><rect x="1400.5" y="3229.5" width="120" height="584" stroke="#000000" stroke-width="20.625" stroke-miterlimit="8" fill="none"/><rect x="1564.5" y="2237.5" width="585" height="120" stroke="#000000" stroke-width="20.625" stroke-miterlimit="8" fill="none"/><rect x="1564.5" y="3935.5" width="585" height="121" stroke="#000000" stroke-width="20.625" stroke-miterlimit="8" fill="none"/><path d="M2149 2297 2297.23 2297 2297.23 2470.52" stroke="#000000" stroke-width="13.75" stroke-miterlimit="8" fill="none" fill-rule="evenodd"/><path d="M0 0 104.224 0 104.224 173.521" stroke="#000000" stroke-width="13.75" stroke-miterlimit="8" fill="none" fill-rule="evenodd" transform="matrix(-1 0 0 1 1564.22 2297)"/><path d="M1460 3055 1460 3228.52" stroke="#000000" stroke-width="13.75" stroke-miterlimit="8" fill="none" fill-rule="evenodd"/><path d="M0 0 182.066 0 182.066 104.224" stroke="#000000" stroke-width="13.75" stroke-miterlimit="8" fill="none" fill-rule="evenodd" transform="matrix(6.12323e-17 1 1 -6.12323e-17 1460 3813)"/><path d="M0 0 148.23 0 148.23 173.666" stroke="#000000" stroke-width="13.75" stroke-miterlimit="8" fill="none" fill-rule="evenodd" transform="matrix(1 0 0 -1 2149 3995.67)"/><path d="M2438.88 2504.37 2438.88 3786.84 2425.12 3786.84 2425.13 2504.37ZM2411.38 2511.25 2432 2470 2452.63 2511.25ZM2452.62 3779.96 2432 3821.21 2411.38 3779.96Z"/><text font-family="Aptos,Aptos_MSFontService,sans-serif" font-weight="700" font-size="110" transform="matrix(1 0 0 1 2476.09 3182)">λ</text><text font-family="Aptos,Aptos_MSFontService,sans-serif" font-weight="700" font-size="110" transform="matrix(1 0 0 1 2530.52 3182)">/2</text><path d="M2322.86 3009.44C2322.86 3007.32 2321.93 3005.64 2320.06 3004.41 2318.18 3003.18 2315.4 3002.3 2311.7 3001.76 2308 3001.22 2303.19 3000.95 2297.26 3000.95 2290.67 3000.95 2285.43 3001.25 2281.54 3001.83 2277.64 3002.41 2274.78 3003.33 2272.93 3004.59 2271.09 3005.85 2270.17 3007.53 2270.17 3009.62 2270.17 3010.76 2270.45 3011.76 2271 3012.61 2271.56 3013.46 2272.42 3014.23 2273.61 3014.9 2274.79 3015.58 2276.36 3016.15 2278.32 3016.63 2280.29 3017.11 2282.73 3017.45 2285.65 3017.66 2288.57 3017.87 2291.82 3017.98 2295.42 3017.98 2300.78 3017.98 2305.28 3017.78 2308.94 3017.37 2312.59 3016.97 2315.41 3016.39 2317.38 3015.64 2319.36 3014.89 2320.77 3014.01 2321.61 3012.99 2322.45 3011.97 2322.86 3010.79 2322.86 3009.44ZM2327.9 3009.71C2327.9 3017.08 2325.39 3022.58 2320.37 3026.2 2315.35 3029.82 2307.68 3031.64 2297.35 3031.64 2286.75 3031.64 2278.73 3029.71 2273.29 3025.86 2267.86 3022.01 2265.14 3016.36 2265.14 3008.9 2265.14 3001.54 2267.69 2996.09 2272.8 2992.58 2277.91 2989.06 2285.62 2987.3 2295.96 2987.3 2306.32 2987.3 2314.23 2989.26 2319.7 2993.18 2325.16 2997.11 2327.9 3002.62 2327.9 3009.71Z" fill-rule="evenodd"/><text fill="#000000" fill-opacity="0" font-family="Arial,Arial_MSFontService,sans-serif" font-size="44.3379" x="2265.14" y="3026.09">𝟎</text><path d="M2276.28 3041.85 2276.28 3050.92 2265.86 3050.92 2265.86 3041.85Z" fill-rule="evenodd"/><text fill="#000000" fill-opacity="0" font-family="Arial,Arial_MSFontService,sans-serif" font-size="9.07422" x="2265.86" y="3049.79">.</text><path d="M2327.18 3078.24 2327.18 3121.28 2324.21 3121.28 2265.72 3096.34 2265.72 3087.14 2268.82 3087.14 2314.51 3109.69 2315.18 3109.69 2315.18 3089.7C2315.18 3088.26 2315.05 3087.09 2314.78 3086.19 2314.51 3085.29 2313.99 3084.55 2313.23 3083.97 2312.46 3083.38 2310.9 3082.82 2308.53 3082.28L2308.53 3077.07ZM2330.14 3167.43 2330.14 3172.37 2315.81 3171.47 2315.81 3143.89 2299.64 3143.89C2300.18 3145.68 2300.58 3147.52 2300.83 3149.39 2301.08 3151.26 2301.21 3153.56 2301.21 3156.29 2301.21 3160 2300.52 3163.26 2299.15 3166.06 2297.77 3168.86 2295.77 3171.03 2293.15 3172.57 2290.53 3174.11 2287.45 3174.88 2283.92 3174.88 2277.84 3174.88 2273.19 3172.87 2269.97 3168.84 2266.75 3164.81 2265.14 3159.03 2265.14 3151.48 2265.14 3148.33 2265.45 3145.13 2266.08 3141.87 2266.71 3138.6 2267.57 3135.8 2268.64 3133.47L2279.87 3133.47 2279.87 3141.6C2276.61 3142.35 2274.18 3143.54 2272.57 3145.19 2270.97 3146.84 2270.17 3148.96 2270.17 3151.57 2270.17 3154.83 2271.18 3157.24 2273.2 3158.8 2275.22 3160.36 2278.35 3161.14 2282.57 3161.14 2286.73 3161.14 2289.91 3160.13 2292.09 3158.13 2294.28 3156.12 2295.37 3153.22 2295.37 3149.41 2295.37 3147.95 2295.24 3146.37 2294.97 3144.67 2294.7 3142.98 2294.37 3141.48 2293.98 3140.16L2296.5 3136.12 2327.18 3136.12 2327.18 3162.66C2327.18 3164.25 2327.37 3165.32 2327.76 3165.88 2328.15 3166.43 2328.94 3166.95 2330.14 3167.43Z" fill-rule="evenodd"/><text fill="#000000" fill-opacity="0" font-family="Arial,Arial_MSFontService,sans-serif" font-size="97.8105" x="2265.14" y="3162.66">𝟕𝟓</text><path d="M2327.18 3195.47 2327.18 3237.97 2324.21 3237.3 2271.2 3199.61 2271.2 3211.02C2271.2 3212.69 2271.45 3214.03 2271.95 3215.04 2272.44 3216.04 2273.61 3217.21 2275.47 3218.54 2277.33 3219.87 2279.68 3221.08 2282.52 3222.16L2282.52 3228.04 2265.86 3224.45 2265.86 3181.59 2268.82 3182.22 2321.83 3219.91 2321.83 3208.95C2321.83 3207.69 2321.74 3206.73 2321.56 3206.07 2321.38 3205.42 2321.1 3204.81 2320.73 3204.26 2320.36 3203.7 2319.76 3203.07 2318.96 3202.35 2318.15 3201.63 2316.99 3200.83 2315.47 3199.94 2313.96 3199.06 2312.61 3198.38 2311.41 3197.9L2311.41 3192.01Z" fill-rule="evenodd"/><text fill="#000000" fill-opacity="0" font-family="Arial,Arial_MSFontService,sans-serif" font-size="56.377" x="2265.86" y="3230.92">𝒁</text><path d="M2288.67 3259.03C2288.67 3257.48 2287.99 3256.26 2286.63 3255.37 2285.27 3254.47 2283.24 3253.83 2280.54 3253.44 2277.85 3253.04 2274.34 3252.85 2270.03 3252.85 2265.23 3252.85 2261.41 3253.06 2258.58 3253.48 2255.74 3253.91 2253.65 3254.58 2252.31 3255.5 2250.97 3256.41 2250.3 3257.63 2250.3 3259.16 2250.3 3259.99 2250.5 3260.71 2250.9 3261.34 2251.31 3261.96 2251.94 3262.51 2252.8 3263 2253.66 3263.49 2254.81 3263.91 2256.24 3264.26 2257.67 3264.61 2259.44 3264.86 2261.57 3265.02 2263.7 3265.17 2266.07 3265.25 2268.68 3265.25 2272.59 3265.25 2275.87 3265.1 2278.53 3264.8 2281.19 3264.51 2283.24 3264.09 2284.68 3263.54 2286.12 3263 2287.15 3262.36 2287.76 3261.61 2288.37 3260.87 2288.67 3260.01 2288.67 3259.03ZM2292.34 3259.23C2292.34 3264.59 2290.51 3268.59 2286.86 3271.23 2283.2 3273.87 2277.62 3275.19 2270.09 3275.19 2262.37 3275.19 2256.53 3273.79 2252.57 3270.99 2248.61 3268.18 2246.64 3264.07 2246.64 3258.64 2246.64 3253.27 2248.49 3249.31 2252.21 3246.74 2255.93 3244.18 2261.55 3242.9 2269.08 3242.9 2276.62 3242.9 2282.39 3244.33 2286.37 3247.19 2290.35 3250.04 2292.34 3254.06 2292.34 3259.23Z" fill-rule="evenodd"/><text fill="#000000" fill-opacity="0" font-family="Arial,Arial_MSFontService,sans-serif" font-size="32.2896" x="2246.64" y="3271.15">𝟎</text><path d="M1506.48 2695.79 1506.48 2707.24 1505.97 2707.24 1505.97 2756.99 1499.97 2756.99 1499.97 2701.99 1500.51 2701.99 1500.51 2699.11 1417.94 2674.94 1417.94 2670.58 1457.92 2651.99 1454.55 2644.4 1457.92 2643 1464.66 2657.74 1429.8 2673.59Z" fill-rule="evenodd"/><path d="M1485.01 2728.95C1485.01 2733.35 1484.42 2736.94 1483.24 2739.73 1482.05 2742.51 1480.45 2744.53 1478.43 2745.77 1476.41 2747.01 1474.05 2747.63 1471.35 2747.63 1468.99 2747.63 1466.79 2747.19 1464.75 2746.31 1462.71 2745.42 1460.39 2743.9 1457.79 2741.73 1455.18 2739.55 1451.45 2735.89 1446.6 2730.74 1445.11 2729.16 1443.14 2727.26 1440.7 2725.06 1438.25 2722.86 1436.17 2721.11 1434.43 2719.83L1433.98 2719.83 1433.98 2735.77C1433.98 2737.72 1434.12 2739.17 1434.41 2740.13 1434.69 2741.09 1435.19 2741.85 1435.89 2742.4 1436.59 2742.95 1437.65 2743.41 1439.06 2743.77L1439.06 2748.94 1422.97 2747.9 1422.97 2706.75 1425.94 2706.75C1431.24 2709.06 1438.07 2713.78 1446.42 2720.9 1450.23 2724.14 1453.36 2726.6 1455.81 2728.29 1458.27 2729.99 1460.59 2731.25 1462.77 2732.09 1464.96 2732.93 1467.22 2733.35 1469.56 2733.35 1472.85 2733.35 1475.44 2732.61 1477.31 2731.15 1479.18 2729.68 1480.11 2727.67 1480.11 2725.13 1480.11 2720.25 1476.6 2717.12 1469.56 2715.74L1469.56 2707.65 1480.16 2707.65C1482.14 2712.53 1483.44 2716.47 1484.07 2719.47 1484.7 2722.46 1485.01 2725.62 1485.01 2728.95Z" fill-rule="evenodd"/><text fill="#000000" fill-opacity="0" font-family="Arial,Arial_MSFontService,sans-serif" font-size="42.1816" x="1422.97" y="2743.66">𝟐</text><path d="M1484.29 2791.01 1484.29 2833.51 1481.33 2832.84 1428.32 2795.15 1428.32 2806.56C1428.32 2808.23 1428.57 2809.58 1429.06 2810.58 1429.55 2811.58 1430.73 2812.75 1432.59 2814.08 1434.44 2815.42 1436.79 2816.62 1439.64 2817.7L1439.64 2823.58 1422.97 2819.99 1422.97 2777.13 1425.94 2777.76 1478.95 2815.45 1478.95 2804.49C1478.95 2803.23 1478.86 2802.28 1478.68 2801.62 1478.5 2800.96 1478.22 2800.35 1477.85 2799.8 1477.47 2799.24 1476.88 2798.61 1476.07 2797.89 1475.26 2797.17 1474.1 2796.37 1472.59 2795.48 1471.08 2794.6 1469.72 2793.92 1468.52 2793.44L1468.52 2787.56Z" fill-rule="evenodd"/><text fill="#000000" fill-opacity="0" font-family="Arial,Arial_MSFontService,sans-serif" font-size="56.377" x="1422.97" y="2826.46">𝒁</text><path d="M1445.79 2854.57C1445.79 2853.02 1445.11 2851.8 1443.74 2850.91 1442.38 2850.01 1440.35 2849.37 1437.66 2848.98 1434.97 2848.58 1431.46 2848.39 1427.14 2848.39 1422.34 2848.39 1418.53 2848.6 1415.69 2849.03 1412.86 2849.45 1410.77 2850.12 1409.43 2851.04 1408.09 2851.95 1407.41 2853.18 1407.41 2854.7 1407.41 2855.53 1407.62 2856.26 1408.02 2856.88 1408.42 2857.5 1409.06 2858.05 1409.92 2858.55 1410.78 2859.04 1411.92 2859.46 1413.35 2859.81 1414.78 2860.15 1416.56 2860.41 1418.68 2860.56 1420.81 2860.71 1423.18 2860.79 1425.8 2860.79 1429.7 2860.79 1432.99 2860.64 1435.65 2860.34 1438.31 2860.05 1440.36 2859.63 1441.8 2859.09 1443.24 2858.54 1444.26 2857.9 1444.87 2857.16 1445.48 2856.41 1445.79 2855.55 1445.79 2854.57ZM1449.45 2854.77C1449.45 2860.13 1447.63 2864.13 1443.97 2866.77 1440.32 2869.41 1434.73 2870.73 1427.21 2870.73 1419.49 2870.73 1413.65 2869.33 1409.69 2866.53 1405.73 2863.73 1403.75 2859.61 1403.75 2854.18 1403.75 2848.81 1405.61 2844.85 1409.33 2842.29 1413.05 2839.72 1418.67 2838.44 1426.19 2838.44 1433.74 2838.44 1439.5 2839.87 1443.48 2842.73 1447.46 2845.59 1449.45 2849.6 1449.45 2854.77Z" fill-rule="evenodd"/><text fill="#000000" fill-opacity="0" font-family="Arial,Arial_MSFontService,sans-serif" font-size="32.2896" x="1403.75" y="2866.7">𝟎</text><path d="M1506.91 3440.77 1506.91 3452.22 1506.4 3452.22 1506.4 3501.97 1500.4 3501.97 1500.4 3446.97 1500.93 3446.97 1500.93 3444.09 1418.36 3419.92 1418.36 3415.56 1458.35 3396.97 1454.98 3389.37 1458.35 3387.98 1465.08 3402.72 1430.22 3418.57Z" fill-rule="evenodd"/><path d="M1485.44 3473.92C1485.44 3478.33 1484.84 3481.92 1483.66 3484.71 1482.48 3487.49 1480.88 3489.5 1478.85 3490.75 1476.83 3491.99 1474.47 3492.61 1471.78 3492.61 1469.41 3492.61 1467.21 3492.17 1465.18 3491.29 1463.14 3490.4 1460.82 3488.88 1458.21 3486.7 1455.61 3484.53 1451.88 3480.87 1447.03 3475.72 1445.53 3474.13 1443.56 3472.24 1441.12 3470.04 1438.68 3467.84 1436.59 3466.09 1434.85 3464.81L1434.4 3464.81 1434.4 3480.75C1434.4 3482.7 1434.55 3484.15 1434.83 3485.11 1435.12 3486.07 1435.61 3486.82 1436.31 3487.38 1437.02 3487.93 1438.07 3488.39 1439.48 3488.75L1439.48 3493.91 1423.4 3492.88 1423.4 3451.73 1426.36 3451.73C1431.66 3454.04 1438.49 3458.76 1446.85 3465.88 1450.65 3469.12 1453.78 3471.58 1456.24 3473.27 1458.69 3474.97 1461.01 3476.23 1463.2 3477.07 1465.38 3477.91 1467.65 3478.33 1469.98 3478.33 1473.28 3478.33 1475.86 3477.59 1477.73 3476.13 1479.6 3474.66 1480.54 3472.65 1480.54 3470.11 1480.54 3465.22 1477.02 3462.1 1469.98 3460.72L1469.98 3452.63 1480.58 3452.63C1482.56 3457.51 1483.86 3461.45 1484.49 3464.45 1485.12 3467.44 1485.44 3470.6 1485.44 3473.92Z" fill-rule="evenodd"/><text fill="#000000" fill-opacity="0" font-family="Arial,Arial_MSFontService,sans-serif" font-size="42.1816" x="1423.4" y="3488.64">𝟐</text><path d="M1484.72 3535.99 1484.72 3578.49 1481.75 3577.82 1428.74 3540.13 1428.74 3551.54C1428.74 3553.21 1428.99 3554.55 1429.48 3555.56 1429.98 3556.56 1431.15 3557.73 1433.01 3559.06 1434.87 3560.39 1437.22 3561.6 1440.06 3562.68L1440.06 3568.56 1423.4 3564.97 1423.4 3522.11 1426.36 3522.74 1479.37 3560.43 1479.37 3549.47C1479.37 3548.21 1479.28 3547.25 1479.1 3546.6 1478.92 3545.94 1478.64 3545.33 1478.27 3544.78 1477.9 3544.22 1477.3 3543.59 1476.5 3542.87 1475.69 3542.15 1474.53 3541.35 1473.01 3540.46 1471.5 3539.58 1470.15 3538.9 1468.95 3538.42L1468.95 3532.54Z" fill-rule="evenodd"/><text fill="#000000" fill-opacity="0" font-family="Arial,Arial_MSFontService,sans-serif" font-size="56.377" x="1423.4" y="3571.44">𝒁</text><path d="M1446.21 3599.55C1446.21 3598 1445.53 3596.78 1444.17 3595.89 1442.81 3594.99 1440.78 3594.35 1438.08 3593.96 1435.39 3593.56 1431.88 3593.37 1427.57 3593.37 1422.77 3593.37 1418.95 3593.58 1416.12 3594 1413.28 3594.43 1411.19 3595.1 1409.85 3596.02 1408.51 3596.93 1407.84 3598.15 1407.84 3599.68 1407.84 3600.51 1408.04 3601.23 1408.44 3601.86 1408.85 3602.48 1409.48 3603.03 1410.34 3603.52 1411.2 3604.02 1412.35 3604.44 1413.78 3604.78 1415.2 3605.13 1416.98 3605.38 1419.11 3605.54 1421.24 3605.69 1423.61 3605.77 1426.22 3605.77 1430.13 3605.77 1433.41 3605.62 1436.07 3605.32 1438.73 3605.03 1440.78 3604.61 1442.22 3604.06 1443.66 3603.52 1444.69 3602.88 1445.3 3602.13 1445.91 3601.39 1446.21 3600.53 1446.21 3599.55ZM1449.88 3599.75C1449.88 3605.11 1448.05 3609.11 1444.4 3611.75 1440.74 3614.39 1435.16 3615.71 1427.63 3615.71 1419.91 3615.71 1414.07 3614.31 1410.11 3611.51 1406.15 3608.7 1404.17 3604.59 1404.17 3599.16 1404.17 3593.79 1406.03 3589.83 1409.75 3587.27 1413.47 3584.7 1419.09 3583.42 1426.62 3583.42 1434.16 3583.42 1439.93 3584.85 1443.91 3587.71 1447.89 3590.56 1449.88 3594.58 1449.88 3599.75Z" fill-rule="evenodd"/><text fill="#000000" fill-opacity="0" font-family="Arial,Arial_MSFontService,sans-serif" font-size="32.2896" x="1404.17" y="3611.68">𝟎</text><path d="M1828.79 2272.64 1871.28 2272.64 1870.61 2275.6 1832.92 2328.61 1844.33 2328.61C1846.01 2328.61 1847.35 2328.37 1848.35 2327.87 1849.35 2327.38 1850.52 2326.2 1851.85 2324.34 1853.19 2322.49 1854.39 2320.14 1855.47 2317.29L1861.35 2317.29 1857.76 2333.96 1814.91 2333.96 1815.53 2330.99 1853.22 2277.99 1842.26 2277.99C1841.01 2277.99 1840.05 2278.08 1839.39 2278.25 1838.73 2278.43 1838.12 2278.71 1837.57 2279.09 1837.01 2279.46 1836.38 2280.05 1835.66 2280.86 1834.94 2281.67 1834.14 2282.83 1833.26 2284.34 1832.37 2285.85 1831.69 2287.21 1831.21 2288.41L1825.33 2288.41Z" fill-rule="evenodd"/><text fill="#000000" fill-opacity="0" font-family="Arial,Arial_MSFontService,sans-serif" font-size="61.3184" x="1814.91" y="2326.29">𝒁</text><path d="M1892.34 2311.14C1890.79 2311.14 1889.57 2311.82 1888.68 2313.19 1887.78 2314.55 1887.14 2316.58 1886.75 2319.27 1886.36 2321.97 1886.16 2325.47 1886.16 2329.79 1886.16 2334.59 1886.37 2338.41 1886.8 2341.24 1887.22 2344.08 1887.89 2346.16 1888.81 2347.51 1889.73 2348.85 1890.95 2349.52 1892.47 2349.52 1893.3 2349.52 1894.03 2349.32 1894.65 2348.91 1895.27 2348.51 1895.83 2347.88 1896.32 2347.01 1896.81 2346.15 1897.23 2345.01 1897.58 2343.58 1897.93 2342.15 1898.18 2340.37 1898.33 2338.25 1898.48 2336.12 1898.56 2333.75 1898.56 2331.13 1898.56 2327.23 1898.41 2323.95 1898.12 2321.28 1897.82 2318.62 1897.4 2316.57 1896.86 2315.13 1896.31 2313.69 1895.67 2312.67 1894.93 2312.06 1894.19 2311.45 1893.32 2311.14 1892.34 2311.14ZM1892.54 2307.48C1897.9 2307.48 1901.91 2309.31 1904.55 2312.96 1907.18 2316.61 1908.5 2322.2 1908.5 2329.72 1908.5 2337.45 1907.1 2343.29 1904.3 2347.24 1901.5 2351.2 1897.38 2353.18 1891.95 2353.18 1886.58 2353.18 1882.62 2351.32 1880.06 2347.6 1877.5 2343.89 1876.21 2338.26 1876.21 2330.74 1876.21 2323.19 1877.64 2317.43 1880.5 2313.45 1883.36 2309.47 1887.37 2307.48 1892.54 2307.48Z" fill-rule="evenodd"/><text fill="#000000" fill-opacity="0" font-family="Arial,Arial_MSFontService,sans-serif" font-size="45.7026" x="1876.21" y="2347.47">𝟎</text><path d="M1828.79 3964.92 1871.28 3964.92 1870.61 3967.88 1832.92 4020.89 1844.33 4020.89C1846.01 4020.89 1847.35 4020.64 1848.35 4020.15 1849.35 4019.66 1850.52 4018.48 1851.85 4016.62 1853.19 4014.77 1854.39 4012.42 1855.47 4009.57L1861.35 4009.57 1857.76 4026.24 1814.91 4026.24 1815.53 4023.27 1853.22 3970.26 1842.26 3970.26C1841.01 3970.26 1840.05 3970.35 1839.39 3970.53 1838.73 3970.71 1838.12 3970.99 1837.57 3971.37 1837.01 3971.74 1836.38 3972.33 1835.66 3973.14 1834.94 3973.95 1834.14 3975.11 1833.26 3976.62 1832.37 3978.13 1831.69 3979.49 1831.21 3980.69L1825.33 3980.69Z" fill-rule="evenodd"/><text fill="#000000" fill-opacity="0" font-family="Arial,Arial_MSFontService,sans-serif" font-size="61.3184" x="1814.91" y="4018.57">𝒁</text><path d="M1892.34 4003.42C1890.79 4003.42 1889.57 4004.1 1888.68 4005.47 1887.78 4006.83 1887.14 4008.86 1886.75 4011.55 1886.36 4014.25 1886.16 4017.75 1886.16 4022.07 1886.16 4026.87 1886.37 4030.68 1886.8 4033.52 1887.22 4036.36 1887.89 4038.44 1888.81 4039.78 1889.73 4041.13 1890.95 4041.8 1892.47 4041.8 1893.3 4041.8 1894.03 4041.6 1894.65 4041.19 1895.27 4040.79 1895.83 4040.16 1896.32 4039.29 1896.81 4038.43 1897.23 4037.29 1897.58 4035.86 1897.93 4034.43 1898.18 4032.65 1898.33 4030.53 1898.48 4028.4 1898.56 4026.03 1898.56 4023.41 1898.56 4019.51 1898.41 4016.22 1898.12 4013.56 1897.82 4010.9 1897.4 4008.85 1896.86 4007.41 1896.31 4005.97 1895.67 4004.95 1894.93 4004.34 1894.19 4003.73 1893.32 4003.42 1892.34 4003.42ZM1892.54 3999.76C1897.9 3999.76 1901.91 4001.58 1904.55 4005.24 1907.18 4008.89 1908.5 4014.48 1908.5 4022 1908.5 4029.73 1907.1 4035.56 1904.3 4039.52 1901.5 4043.48 1897.38 4045.46 1891.95 4045.46 1886.58 4045.46 1882.62 4043.6 1880.06 4039.88 1877.5 4036.16 1876.21 4030.54 1876.21 4023.02 1876.21 4015.47 1877.64 4009.71 1880.5 4005.73 1883.36 4001.75 1887.37 3999.76 1892.54 3999.76Z" fill-rule="evenodd"/><text fill="#000000" fill-opacity="0" font-family="Arial,Arial_MSFontService,sans-serif" font-size="45.7026" x="1876.21" y="4039.75">𝟎</text><path d="M1595.38 2153.13 2114.71 2153.12 2114.71 2166.88 1595.38 2166.88ZM1602.25 2180.63 1561 2160 1602.25 2139.38ZM2107.83 2139.38 2149.08 2160 2107.83 2180.62Z"/><text font-family="Aptos,Aptos_MSFontService,sans-serif" font-weight="700" font-size="110" transform="matrix(1 0 0 1 1773.33 2130)">λ</text><text font-family="Aptos,Aptos_MSFontService,sans-serif" font-weight="700" font-size="110" transform="matrix(1 0 0 1 1827.76 2130)">/4</text><path d="M1597.38 4110.13 2116.71 4110.13 2116.71 4123.88 1597.38 4123.88ZM1604.25 4137.63 1563 4117 1604.25 4096.38ZM2109.83 4096.38 2151.08 4117 2109.83 4137.63Z"/><text font-family="Aptos,Aptos_MSFontService,sans-serif" font-weight="700" font-size="110" transform="matrix(1 0 0 1 1796.88 4244)">λ</text><text font-family="Aptos,Aptos_MSFontService,sans-serif" font-weight="700" font-size="110" transform="matrix(1 0 0 1 1851.31 4244)">/4</text><path d="M1343.87 2501.38 1343.88 3020.71 1330.13 3020.71 1330.12 2501.38ZM1316.37 2508.25 1337 2467 1357.62 2508.25ZM1357.63 3013.83 1337 3055.08 1316.38 3013.83Z"/><path d="M1343.87 3259.38 1343.88 3778.71 1330.13 3778.71 1330.12 3259.38ZM1316.37 3266.25 1337 3225 1357.62 3266.25ZM1357.63 3771.83 1337 3813.08 1316.38 3771.83Z"/><text font-family="Aptos,Aptos_MSFontService,sans-serif" font-weight="700" font-size="110" transform="matrix(1 0 0 1 1166.76 2803)">λ</text><text font-family="Aptos,Aptos_MSFontService,sans-serif" font-weight="700" font-size="110" transform="matrix(1 0 0 1 1221.18 2803)">/4</text><text font-family="Aptos,Aptos_MSFontService,sans-serif" font-weight="700" font-size="110" transform="matrix(1 0 0 1 1172.26 3567)">λ</text><text font-family="Aptos,Aptos_MSFontService,sans-serif" font-weight="700" font-size="110" transform="matrix(1 0 0 1 1226.68 3567)">/4</text><path d="M1460 4326.8 1460 4002" stroke="#000000" stroke-width="13.75" stroke-miterlimit="8" fill="none" fill-rule="evenodd"/><path d="M1460 4374C1445.64 4374 1434 4362.36 1434 4348 1434 4333.64 1445.64 4322 1460 4322 1474.36 4322 1486 4333.64 1486 4348 1486 4362.36 1474.36 4374 1460 4374Z" stroke="#000000" stroke-width="13.75" stroke-miterlimit="8" fill-rule="evenodd"/><path d="M0 0 376.772 0.000360892" stroke="#000000" stroke-width="13.75" stroke-miterlimit="8" fill="none" fill-rule="evenodd" transform="matrix(1 -1.22465e-16 -1.22465e-16 -1 1083 3122)"/><path d="M0 26C-3.31014e-15 11.6406 11.6406-3.31014e-15 26-6.62028e-15 40.3593-1.32406e-14 51.9999 11.6406 51.9999 26 51.9999 40.3593 40.3593 51.9999 26 51.9999 11.6406 51.9999-1.65507e-14 40.3593 0 26Z" stroke="#000000" stroke-width="13.75" stroke-miterlimit="8" fill="none" fill-rule="evenodd" transform="matrix(1 -1.22465e-16 -1.22465e-16 -1 1028 3148)"/><path d="M2472.85 2297 2280 2297" stroke="#000000" stroke-width="13.75" stroke-miterlimit="8" fill="none" fill-rule="evenodd"/><path d="M2517 2297C2517 2311.36 2505.36 2323 2491 2323 2476.64 2323 2465 2311.36 2465 2297 2465 2282.64 2476.64 2271 2491 2271 2505.36 2271 2517 2282.64 2517 2297Z" stroke="#000000" stroke-width="13.75" stroke-miterlimit="8" fill-rule="evenodd"/><path d="M2472.85 3995 2280 3995" stroke="#000000" stroke-width="13.75" stroke-miterlimit="8" fill="none" fill-rule="evenodd"/><path d="M2517 3995C2517 4009.36 2505.36 4021 2491 4021 2476.64 4021 2465 4009.36 2465 3995 2465 3980.64 2476.64 3969 2491 3969 2505.36 3969 2517 3980.64 2517 3995Z" stroke="#000000" stroke-width="13.75" stroke-miterlimit="8" fill-rule="evenodd"/><path d="M2835.4 2134.95 2877.89 2134.95 2877.22 2137.92 2839.53 2190.92 2850.94 2190.92C2852.62 2190.92 2853.96 2190.68 2854.96 2190.18 2855.96 2189.69 2857.13 2188.51 2858.46 2186.66 2859.8 2184.8 2861 2182.45 2862.08 2179.6L2867.96 2179.6 2864.37 2196.27 2821.52 2196.27 2822.14 2193.3 2859.83 2140.3 2848.87 2140.3C2847.61 2140.3 2846.66 2140.39 2846 2140.57 2845.34 2140.75 2844.73 2141.02 2844.18 2141.4 2843.62 2141.77 2842.99 2142.36 2842.27 2143.17 2841.55 2143.98 2840.75 2145.14 2839.87 2146.65 2838.98 2148.17 2838.3 2149.52 2837.82 2150.72L2831.94 2150.72Z" fill-rule="evenodd"/><text fill="#000000" fill-opacity="0" font-family="Arial,Arial_MSFontService,sans-serif" font-size="61.3184" x="2821.52" y="2188.6">𝒁</text><path d="M2898.95 2173.45C2897.4 2173.45 2896.18 2174.14 2895.29 2175.5 2894.39 2176.86 2893.75 2178.89 2893.36 2181.58 2892.97 2184.28 2892.77 2187.78 2892.77 2192.1 2892.77 2196.9 2892.98 2200.72 2893.41 2203.55 2893.83 2206.39 2894.5 2208.48 2895.42 2209.82 2896.33 2211.16 2897.56 2211.83 2899.08 2211.83 2899.91 2211.83 2900.64 2211.63 2901.26 2211.22 2901.88 2210.82 2902.44 2210.19 2902.93 2209.33 2903.42 2208.47 2903.84 2207.32 2904.19 2205.89 2904.54 2204.46 2904.79 2202.69 2904.94 2200.56 2905.09 2198.43 2905.17 2196.06 2905.17 2193.44 2905.17 2189.54 2905.02 2186.26 2904.73 2183.6 2904.43 2180.94 2904.01 2178.89 2903.47 2177.45 2902.92 2176.01 2902.28 2174.98 2901.54 2174.37 2900.8 2173.76 2899.93 2173.45 2898.95 2173.45ZM2899.15 2169.79C2904.51 2169.79 2908.52 2171.62 2911.15 2175.27 2913.79 2178.92 2915.11 2184.51 2915.11 2192.04 2915.11 2199.76 2913.71 2205.6 2910.91 2209.56 2908.11 2213.51 2903.99 2215.49 2898.56 2215.49 2893.19 2215.49 2889.23 2213.63 2886.67 2209.92 2884.1 2206.2 2882.82 2200.58 2882.82 2193.05 2882.82 2185.5 2884.25 2179.74 2887.11 2175.76 2889.97 2171.78 2893.98 2169.79 2899.15 2169.79Z" fill-rule="evenodd"/><text fill="#000000" fill-opacity="0" font-family="Arial,Arial_MSFontService,sans-serif" font-size="45.7026" x="2882.82" y="2209.78">𝟎</text><path d="M0 0 0.000360892 51.7325" stroke="#000000" stroke-width="13.75" stroke-miterlimit="8" fill="none" fill-rule="evenodd" transform="matrix(-1 0 0 1 3213 2302)"/><path d="M0 0 90.2 0.000360892" stroke="#000000" stroke-width="13.75" stroke-miterlimit="8" fill="none" fill-rule="evenodd" transform="matrix(-1 0 0 1 3258.2 2354)"/><path d="M0 0 54.2775 0.000360892" stroke="#000000" stroke-width="13.75" stroke-miterlimit="8" fill="none" fill-rule="evenodd" transform="matrix(-1 0 0 1 3240.28 2375)"/><path d="M0 0 28.796 0.000360892" stroke="#000000" stroke-width="13.75" stroke-miterlimit="8" fill="none" fill-rule="evenodd" transform="matrix(-1 0 0 1 3226.8 2394)"/><rect x="0" y="0" width="300" height="121" stroke="#000000" stroke-width="20.625" stroke-miterlimit="8" fill="none" transform="matrix(-1 0 0 1 3027.5 2238.5)"/><path d="M0 0 193.773 0.000360892" stroke="#000000" stroke-width="13.75" stroke-miterlimit="8" fill="none" fill-rule="evenodd" transform="matrix(-1 0 0 1 3220.77 2298)"/><path d="M0 0 193.773 0.000360892" stroke="#000000" stroke-width="13.75" stroke-miterlimit="8" fill="none" fill-rule="evenodd" transform="matrix(-1 0 0 1 2715.77 2297)"/><text font-family="Aptos,Aptos_MSFontService,sans-serif" font-weight="700" font-size="110" transform="matrix(1 0 0 1 676.729 3163)">INPUT</text><path d="M2836.77 3833.1 2879.27 3833.1 2878.6 3836.06 2840.91 3889.07 2852.32 3889.07C2853.99 3889.07 2855.33 3888.83 2856.34 3888.33 2857.34 3887.84 2858.51 3886.66 2859.84 3884.8 2861.17 3882.95 2862.38 3880.6 2863.46 3877.75L2869.34 3877.75 2865.75 3894.42 2822.89 3894.42 2823.52 3891.45 2861.21 3838.45 2850.25 3838.45C2848.99 3838.45 2848.03 3838.54 2847.37 3838.72 2846.72 3838.89 2846.11 3839.17 2845.56 3839.55 2845 3839.92 2844.36 3840.51 2843.65 3841.32 2842.93 3842.13 2842.13 3843.29 2841.24 3844.8 2840.36 3846.31 2839.68 3847.67 2839.2 3848.87L2833.31 3848.87Z" fill-rule="evenodd"/><text fill="#000000" fill-opacity="0" font-family="Arial,Arial_MSFontService,sans-serif" font-size="61.3184" x="2822.89" y="3886.75">𝒁</text><path d="M2900.33 3871.6C2898.78 3871.6 2897.56 3872.28 2896.66 3873.65 2895.77 3875.01 2895.13 3877.04 2894.73 3879.73 2894.34 3882.43 2894.15 3885.93 2894.15 3890.25 2894.15 3895.05 2894.36 3898.87 2894.78 3901.7 2895.21 3904.54 2895.88 3906.62 2896.8 3907.97 2897.71 3909.31 2898.93 3909.98 2900.46 3909.98 2901.29 3909.98 2902.01 3909.78 2902.64 3909.37 2903.26 3908.97 2903.81 3908.34 2904.3 3907.47 2904.79 3906.61 2905.21 3905.47 2905.56 3904.04 2905.91 3902.61 2906.16 3900.83 2906.32 3898.71 2906.47 3896.58 2906.54 3894.21 2906.54 3891.59 2906.54 3887.69 2906.4 3884.41 2906.1 3881.74 2905.81 3879.08 2905.39 3877.03 2904.84 3875.59 2904.3 3874.15 2903.65 3873.13 2902.91 3872.52 2902.17 3871.91 2901.31 3871.6 2900.33 3871.6ZM2900.53 3867.94C2905.89 3867.94 2909.89 3869.77 2912.53 3873.42 2915.17 3877.07 2916.49 3882.66 2916.49 3890.19 2916.49 3897.91 2915.09 3903.75 2912.29 3907.7 2909.48 3911.66 2905.37 3913.64 2899.94 3913.64 2894.57 3913.64 2890.61 3911.78 2888.04 3908.06 2885.48 3904.35 2884.2 3898.72 2884.2 3891.2 2884.2 3883.65 2885.63 3877.89 2888.49 3873.91 2891.34 3869.93 2895.36 3867.94 2900.53 3867.94Z" fill-rule="evenodd"/><text fill="#000000" fill-opacity="0" font-family="Arial,Arial_MSFontService,sans-serif" font-size="45.7026" x="2884.2" y="3907.93">𝟎</text><path d="M0 0 0.000360892 51.7325" stroke="#000000" stroke-width="13.75" stroke-miterlimit="8" fill="none" fill-rule="evenodd" transform="matrix(-1 0 0 1 3215 4000)"/><path d="M0 0 90.2 0.000360892" stroke="#000000" stroke-width="13.75" stroke-miterlimit="8" fill="none" fill-rule="evenodd" transform="matrix(-1 0 0 1 3260.2 4052)"/><path d="M0 0 54.2775 0.000360892" stroke="#000000" stroke-width="13.75" stroke-miterlimit="8" fill="none" fill-rule="evenodd" transform="matrix(-1 0 0 1 3241.28 4073)"/><path d="M0 0 28.796 0.000360892" stroke="#000000" stroke-width="13.75" stroke-miterlimit="8" fill="none" fill-rule="evenodd" transform="matrix(-1 0 0 1 3227.8 4092)"/><rect x="0" y="0" width="301" height="121" stroke="#000000" stroke-width="20.625" stroke-miterlimit="8" fill="none" transform="matrix(-1 0 0 1 3029.5 3936.5)"/><path d="M0 0 193.773 0.000360892" stroke="#000000" stroke-width="13.75" stroke-miterlimit="8" fill="none" fill-rule="evenodd" transform="matrix(-1 0 0 1 3222.77 3997)"/><path d="M0 0 193.773 0.000360892" stroke="#000000" stroke-width="13.75" stroke-miterlimit="8" fill="none" fill-rule="evenodd" transform="matrix(-1 0 0 1 2716.77 3995)"/><path d="M0 0 324.803 0.000360892" stroke="#000000" stroke-width="13.75" stroke-miterlimit="8" fill="none" fill-rule="evenodd" transform="matrix(1.83697e-16 1 1 -1.83697e-16 1460 1968)"/><path d="M0 26C-3.31016e-15 11.6406 11.6407-3.31014e-15 26.0001-6.62028e-15 40.3596-1.32406e-14 52.0003 11.6406 52.0003 26 52.0003 40.3593 40.3596 51.9999 26.0001 51.9999 11.6407 51.9999-1.65508e-14 40.3593 0 26Z" stroke="#000000" stroke-width="13.75" stroke-miterlimit="8" fill-rule="evenodd" transform="matrix(1.83697e-16 1 1 -1.83697e-16 1434 1922)"/><rect x="0" y="0" width="1352" height="121" stroke="#000000" stroke-width="20.625" stroke-miterlimit="8" fill="none" transform="matrix(1.83697e-16 1 1 -1.83697e-16 5992.5 2474.5)"/><rect x="0" y="0" width="585" height="121" stroke="#000000" stroke-width="20.625" stroke-miterlimit="8" fill="none" transform="matrix(1.83697e-16 1 1 -1.83697e-16 6829.5 2474.5)"/><rect x="0" y="0" width="584" height="121" stroke="#000000" stroke-width="20.625" stroke-miterlimit="8" fill="none" transform="matrix(1.83697e-16 1 1 -1.83697e-16 6829.5 3233.5)"/><rect x="0" y="0" width="584" height="120" stroke="#000000" stroke-width="20.625" stroke-miterlimit="8" fill="none" transform="matrix(-1 0 0 1 6785.5 2241.5)"/><rect x="0" y="0" width="584" height="121" stroke="#000000" stroke-width="20.625" stroke-miterlimit="8" fill="none" transform="matrix(-1 0 0 1 6785.5 3939.5)"/><path d="M0 0 148.23 0 148.23 173.521" stroke="#000000" stroke-width="13.75" stroke-miterlimit="8" fill="none" fill-rule="evenodd" transform="matrix(-1 1.22465e-16 1.22465e-16 1 6200.23 2301)"/><path d="M6785 2301 6889.22 2301 6889.22 2474.52" stroke="#000000" stroke-width="13.75" stroke-miterlimit="8" fill="none" fill-rule="evenodd"/><path d="M0 0 173.522 0.000360892" stroke="#000000" stroke-width="13.75" stroke-miterlimit="8" fill="none" fill-rule="evenodd" transform="matrix(1.83697e-16 1 1 -1.83697e-16 6890 3059)"/><path d="M6889.22 3817 6889.22 3999.07 6785 3999.07" stroke="#000000" stroke-width="13.75" stroke-miterlimit="8" fill="none" fill-rule="evenodd"/><path d="M6200.23 3999.67 6052 3999.67 6052 3826" stroke="#000000" stroke-width="13.75" stroke-miterlimit="8" fill="none" fill-rule="evenodd"/><path d="M34.3746-6.87499 1316.84-6.87465 1316.84 6.87535 34.3746 6.87501ZM41.25 20.625 0 0 41.25-20.625ZM1309.96-20.6247 1351.21 0.000360892 1309.96 20.6253Z" transform="matrix(1.83697e-16 1 1 -1.83697e-16 5918 2474)"/><text font-family="Aptos,Aptos_MSFontService,sans-serif" font-weight="700" font-size="110" transform="matrix(1 0 0 1 5717.75 3186)">λ</text><text font-family="Aptos,Aptos_MSFontService,sans-serif" font-weight="700" font-size="110" transform="matrix(1 0 0 1 5772.18 3186)">/2</text><path d="M6026.82 3278.35C6026.82 3280.47 6027.75 3282.15 6029.62 3283.38 6031.5 3284.6 6034.28 3285.49 6037.98 3286.03 6041.68 3286.57 6046.49 3286.84 6052.42 3286.84 6059.01 3286.84 6064.25 3286.54 6068.14 3285.96 6072.04 3285.38 6074.91 3284.46 6076.75 3283.2 6078.59 3281.94 6079.51 3280.26 6079.51 3278.17 6079.51 3277.03 6079.23 3276.03 6078.68 3275.18 6078.12 3274.33 6077.26 3273.56 6076.07 3272.89 6074.89 3272.21 6073.32 3271.64 6071.36 3271.16 6069.4 3270.68 6066.95 3270.33 6064.03 3270.12 6061.11 3269.92 6057.86 3269.81 6054.26 3269.81 6048.9 3269.81 6044.4 3270.01 6040.74 3270.42 6037.09 3270.82 6034.27 3271.4 6032.3 3272.15 6030.32 3272.9 6028.91 3273.78 6028.07 3274.8 6027.24 3275.82 6026.82 3277 6026.82 3278.35ZM6021.79 3278.08C6021.79 3270.71 6024.29 3265.21 6029.31 3261.59 6034.33 3257.97 6042 3256.15 6052.33 3256.15 6062.93 3256.15 6070.95 3258.08 6076.39 3261.93 6081.82 3265.78 6084.54 3271.43 6084.54 3278.88 6084.54 3286.25 6081.99 3291.7 6076.88 3295.21 6071.78 3298.73 6064.06 3300.49 6053.72 3300.49 6043.36 3300.49 6035.45 3298.53 6029.98 3294.61 6024.52 3290.68 6021.79 3285.17 6021.79 3278.08Z" fill-rule="evenodd"/><text fill="#000000" fill-opacity="0" font-family="Arial,Arial_MSFontService,sans-serif" font-size="44.3379" x="6021.79" y="3294.95">𝟎</text><path d="M6073.4 3245.94 6073.4 3236.87 6083.82 3236.87 6083.82 3245.94Z" fill-rule="evenodd"/><text fill="#000000" fill-opacity="0" font-family="Arial,Arial_MSFontService,sans-serif" font-size="9.07422" x="6073.4" y="3244.81">.</text><path d="M6022.5 3209.55 6022.5 3166.51 6025.47 3166.51 6083.96 3191.44 6083.96 3200.65 6080.86 3200.65 6035.17 3178.1 6034.5 3178.1 6034.5 3198.09C6034.5 3199.53 6034.63 3200.7 6034.9 3201.6 6035.17 3202.5 6035.69 3203.24 6036.45 3203.82 6037.22 3204.4 6038.78 3204.97 6041.15 3205.51L6041.15 3210.72ZM6019.54 3120.36 6019.54 3115.42 6033.87 3116.32 6033.87 3143.9 6050.04 3143.9C6049.5 3142.1 6049.1 3140.27 6048.85 3138.4 6048.6 3136.53 6048.47 3134.23 6048.47 3131.5 6048.47 3127.79 6049.16 3124.53 6050.54 3121.73 6051.91 3118.93 6053.91 3116.76 6056.53 3115.22 6059.15 3113.68 6062.23 3112.91 6065.76 3112.91 6071.84 3112.91 6076.49 3114.92 6079.71 3118.95 6082.93 3122.98 6084.54 3128.76 6084.54 3136.31 6084.54 3139.45 6084.23 3142.66 6083.6 3145.92 6082.97 3149.19 6082.12 3151.99 6081.04 3154.32L6069.81 3154.32 6069.81 3146.19C6073.07 3145.44 6075.5 3144.25 6077.11 3142.6 6078.71 3140.95 6079.51 3138.83 6079.51 3136.22 6079.51 3132.96 6078.5 3130.55 6076.48 3128.99 6074.46 3127.43 6071.33 3126.65 6067.11 3126.65 6062.95 3126.65 6059.77 3127.66 6057.59 3129.66 6055.4 3131.67 6054.31 3134.57 6054.31 3138.38 6054.31 3139.84 6054.44 3141.42 6054.71 3143.12 6054.98 3144.81 6055.31 3146.31 6055.7 3147.63L6053.19 3151.67 6022.5 3151.67 6022.5 3125.12C6022.5 3123.54 6022.31 3122.47 6021.92 3121.91 6021.53 3121.36 6020.74 3120.84 6019.54 3120.36Z" fill-rule="evenodd"/><text fill="#000000" fill-opacity="0" font-family="Arial,Arial_MSFontService,sans-serif" font-size="97.8105" x="6019.54" y="3198.49">𝟕𝟓</text><path d="M6022.5 3092.32 6022.5 3049.82 6025.47 3050.49 6078.48 3088.18 6078.48 3076.77C6078.48 3075.1 6078.23 3073.76 6077.74 3072.75 6077.24 3071.75 6076.07 3070.58 6074.21 3069.25 6072.35 3067.92 6070 3066.71 6067.16 3065.63L6067.16 3059.75 6083.82 3063.34 6083.82 3106.2 6080.86 3105.57 6027.85 3067.88 6027.85 3078.84C6027.85 3080.1 6027.94 3081.06 6028.12 3081.71 6028.3 3082.37 6028.58 3082.98 6028.95 3083.53 6029.32 3084.09 6029.92 3084.72 6030.72 3085.44 6031.53 3086.16 6032.69 3086.96 6034.21 3087.85 6035.72 3088.73 6037.07 3089.41 6038.27 3089.89L6038.27 3095.77Z" fill-rule="evenodd"/><text fill="#000000" fill-opacity="0" font-family="Arial,Arial_MSFontService,sans-serif" font-size="56.377" x="6022.5" y="3099.15">𝒁</text><path d="M6061.01 3028.76C6061.01 3030.31 6061.69 3031.53 6063.05 3032.42 6064.42 3033.32 6066.44 3033.96 6069.14 3034.35 6071.83 3034.75 6075.34 3034.94 6079.65 3034.94 6084.45 3034.94 6088.27 3034.73 6091.1 3034.31 6093.94 3033.88 6096.03 3033.21 6097.37 3032.29 6098.71 3031.38 6099.38 3030.16 6099.38 3028.63 6099.38 3027.8 6099.18 3027.08 6098.78 3026.45 6098.37 3025.83 6097.74 3025.28 6096.88 3024.79 6096.02 3024.29 6094.87 3023.87 6093.44 3023.53 6092.02 3023.18 6090.24 3022.93 6088.11 3022.77 6085.99 3022.62 6083.61 3022.54 6081 3022.54 6077.09 3022.54 6073.81 3022.69 6071.15 3022.99 6068.49 3023.28 6066.44 3023.7 6065 3024.25 6063.56 3024.79 6062.53 3025.43 6061.92 3026.18 6061.31 3026.92 6061.01 3027.78 6061.01 3028.76ZM6057.34 3028.56C6057.34 3023.2 6059.17 3019.2 6062.82 3016.56 6066.48 3013.92 6072.06 3012.6 6079.59 3012.6 6087.31 3012.6 6093.15 3014 6097.11 3016.8 6101.07 3019.61 6103.05 3023.72 6103.05 3029.15 6103.05 3034.52 6101.19 3038.48 6097.47 3041.04 6093.75 3043.61 6088.13 3044.89 6080.6 3044.89 6073.06 3044.89 6067.29 3043.46 6063.31 3040.6 6059.33 3037.75 6057.34 3033.73 6057.34 3028.56Z" fill-rule="evenodd"/><text fill="#000000" fill-opacity="0" font-family="Arial,Arial_MSFontService,sans-serif" font-size="32.2896" x="6057.34" y="3040.85">𝟎</text><path d="M6843.2 2847.02 6843.2 2835.57 6843.71 2835.57 6843.71 2785.82 6849.71 2785.82 6849.71 2840.82 6849.17 2840.82 6849.17 2843.7 6931.74 2867.87 6931.74 2872.23 6891.76 2890.82 6895.13 2898.41 6891.76 2899.81 6885.02 2885.07 6919.88 2869.22Z" fill-rule="evenodd"/><path d="M6864.67 2813.86C6864.67 2809.46 6865.26 2805.87 6866.44 2803.08 6867.63 2800.3 6869.23 2798.28 6871.25 2797.04 6873.27 2795.8 6875.63 2795.18 6878.33 2795.18 6880.69 2795.18 6882.89 2795.62 6884.93 2796.5 6886.97 2797.39 6889.29 2798.91 6891.89 2801.08 6894.5 2803.26 6898.23 2806.92 6903.08 2812.07 6904.58 2813.66 6906.54 2815.55 6908.99 2817.75 6911.43 2819.95 6913.52 2821.7 6915.25 2822.98L6915.7 2822.98 6915.7 2807.04C6915.7 2805.09 6915.56 2803.64 6915.27 2802.68 6914.99 2801.72 6914.5 2800.96 6913.79 2800.41 6913.09 2799.86 6912.03 2799.4 6910.62 2799.04L6910.62 2793.87 6926.71 2794.91 6926.71 2836.06 6923.74 2836.06C6918.44 2833.75 6911.61 2829.03 6903.26 2821.91 6899.45 2818.67 6896.32 2816.21 6893.87 2814.52 6891.41 2812.82 6889.09 2811.56 6886.91 2810.72 6884.72 2809.88 6882.46 2809.46 6880.12 2809.46 6876.83 2809.46 6874.25 2810.2 6872.37 2811.66 6870.5 2813.13 6869.57 2815.14 6869.57 2817.68 6869.57 2822.56 6873.09 2825.69 6880.12 2827.07L6880.12 2835.16 6869.52 2835.16C6867.54 2830.28 6866.24 2826.34 6865.61 2823.34 6864.98 2820.35 6864.67 2817.19 6864.67 2813.86Z" fill-rule="evenodd"/><text fill="#000000" fill-opacity="0" font-family="Arial,Arial_MSFontService,sans-serif" font-size="42.1816" x="6864.67" y="2830.78">𝟐</text><path d="M6865.39 2751.8 6865.39 2709.3 6868.35 2709.97 6921.36 2747.66 6921.36 2736.25C6921.36 2734.58 6921.11 2733.24 6920.62 2732.23 6920.13 2731.23 6918.95 2730.06 6917.09 2728.73 6915.24 2727.4 6912.89 2726.19 6910.04 2725.11L6910.04 2719.23 6926.71 2722.82 6926.71 2765.68 6923.74 2765.05 6870.73 2727.36 6870.73 2738.32C6870.73 2739.58 6870.82 2740.53 6871 2741.19 6871.18 2741.85 6871.46 2742.46 6871.83 2743.01 6872.21 2743.57 6872.8 2744.2 6873.61 2744.92 6874.42 2745.64 6875.58 2746.44 6877.09 2747.33 6878.6 2748.21 6879.96 2748.89 6881.16 2749.37L6881.16 2755.25Z" fill-rule="evenodd"/><text fill="#000000" fill-opacity="0" font-family="Arial,Arial_MSFontService,sans-serif" font-size="56.377" x="6865.39" y="2758.63">𝒁</text><path d="M6903.89 2688.24C6903.89 2689.79 6904.57 2691.01 6905.94 2691.9 6907.3 2692.8 6909.33 2693.44 6912.02 2693.83 6914.72 2694.23 6918.22 2694.42 6922.54 2694.42 6927.34 2694.42 6931.15 2694.21 6933.99 2693.78 6936.83 2693.36 6938.91 2692.69 6940.25 2691.77 6941.6 2690.86 6942.27 2689.64 6942.27 2688.11 6942.27 2687.28 6942.06 2686.55 6941.66 2685.93 6941.26 2685.31 6940.63 2684.76 6939.76 2684.26 6938.9 2683.77 6937.76 2683.35 6936.33 2683 6934.9 2682.66 6933.12 2682.41 6931 2682.25 6928.87 2682.1 6926.5 2682.02 6923.88 2682.02 6919.98 2682.02 6916.69 2682.17 6914.03 2682.47 6911.37 2682.76 6909.32 2683.18 6907.88 2683.72 6906.44 2684.27 6905.42 2684.91 6904.81 2685.65 6904.2 2686.4 6903.89 2687.26 6903.89 2688.24ZM6900.23 2688.04C6900.23 2682.68 6902.05 2678.68 6905.71 2676.04 6909.36 2673.4 6914.95 2672.08 6922.47 2672.08 6930.19 2672.08 6936.03 2673.48 6939.99 2676.28 6943.95 2679.08 6945.93 2683.2 6945.93 2688.63 6945.93 2694 6944.07 2697.96 6940.35 2700.52 6936.63 2703.09 6931.01 2704.37 6923.49 2704.37 6915.94 2704.37 6910.18 2702.94 6906.2 2700.08 6902.22 2697.22 6900.23 2693.21 6900.23 2688.04Z" fill-rule="evenodd"/><text fill="#000000" fill-opacity="0" font-family="Arial,Arial_MSFontService,sans-serif" font-size="32.2896" x="6900.23" y="2700.33">𝟎</text><path d="M6842.77 3592 6842.77 3580.55 6843.28 3580.55 6843.28 3530.8 6849.28 3530.8 6849.28 3585.8 6848.75 3585.8 6848.75 3588.68 6931.32 3612.85 6931.32 3617.2 6891.34 3635.8 6894.7 3643.39 6891.34 3644.79 6884.6 3630.05 6919.46 3614.19Z" fill-rule="evenodd"/><path d="M6864.25 3558.84C6864.25 3554.44 6864.84 3550.85 6866.02 3548.06 6867.2 3545.28 6868.81 3543.26 6870.83 3542.02 6872.85 3540.78 6875.21 3540.16 6877.9 3540.16 6880.27 3540.16 6882.47 3540.6 6884.51 3541.48 6886.54 3542.37 6888.86 3543.89 6891.47 3546.06 6894.07 3548.24 6897.8 3551.9 6902.65 3557.05 6904.15 3558.63 6906.12 3560.53 6908.56 3562.73 6911 3564.93 6913.09 3566.68 6914.83 3567.96L6915.28 3567.96 6915.28 3552.02C6915.28 3550.07 6915.14 3548.62 6914.85 3547.66 6914.57 3546.7 6914.07 3545.94 6913.37 3545.39 6912.66 3544.84 6911.61 3544.38 6910.2 3544.02L6910.2 3538.85 6926.28 3539.89 6926.28 3581.04 6923.32 3581.04C6918.02 3578.73 6911.19 3574.01 6902.83 3566.89 6899.03 3563.65 6895.9 3561.19 6893.45 3559.5 6890.99 3557.8 6888.67 3556.54 6886.48 3555.7 6884.3 3554.86 6882.04 3554.44 6879.7 3554.44 6876.4 3554.44 6873.82 3555.18 6871.95 3556.64 6870.08 3558.11 6869.14 3560.12 6869.14 3562.66 6869.14 3567.54 6872.66 3570.67 6879.7 3572.05L6879.7 3580.14 6869.1 3580.14C6867.12 3575.26 6865.82 3571.32 6865.19 3568.32 6864.56 3565.33 6864.25 3562.17 6864.25 3558.84Z" fill-rule="evenodd"/><text fill="#000000" fill-opacity="0" font-family="Arial,Arial_MSFontService,sans-serif" font-size="42.1816" x="6864.25" y="3575.76">𝟐</text><path d="M6864.96 3496.77 6864.96 3454.28 6867.93 3454.95 6920.94 3492.64 6920.94 3481.23C6920.94 3479.55 6920.69 3478.21 6920.2 3477.21 6919.7 3476.21 6918.53 3475.04 6916.67 3473.71 6914.81 3472.37 6912.46 3471.17 6909.62 3470.09L6909.62 3464.21 6926.28 3467.8 6926.28 3510.66 6923.32 3510.03 6870.31 3472.34 6870.31 3483.3C6870.31 3484.56 6870.4 3485.51 6870.58 3486.17 6870.76 3486.83 6871.04 3487.44 6871.41 3487.99 6871.79 3488.55 6872.38 3489.18 6873.19 3489.9 6873.99 3490.62 6875.15 3491.42 6876.67 3492.3 6878.18 3493.19 6879.53 3493.87 6880.73 3494.35L6880.73 3500.23Z" fill-rule="evenodd"/><text fill="#000000" fill-opacity="0" font-family="Arial,Arial_MSFontService,sans-serif" font-size="56.377" x="6864.96" y="3503.61">𝒁</text><path d="M6903.47 3433.22C6903.47 3434.77 6904.15 3435.99 6905.51 3436.88 6906.88 3437.78 6908.9 3438.42 6911.6 3438.81 6914.29 3439.21 6917.8 3439.4 6922.12 3439.4 6926.91 3439.4 6930.73 3439.19 6933.57 3438.76 6936.4 3438.34 6938.49 3437.67 6939.83 3436.75 6941.17 3435.84 6941.84 3434.61 6941.84 3433.09 6941.84 3432.26 6941.64 3431.53 6941.24 3430.91 6940.83 3430.29 6940.2 3429.73 6939.34 3429.24 6938.48 3428.75 6937.33 3428.33 6935.9 3427.98 6934.48 3427.64 6932.7 3427.38 6930.57 3427.23 6928.45 3427.08 6926.07 3427 6923.46 3427 6919.55 3427 6916.27 3427.15 6913.61 3427.44 6910.95 3427.74 6908.9 3428.16 6907.46 3428.7 6906.02 3429.25 6904.99 3429.89 6904.38 3430.63 6903.77 3431.38 6903.47 3432.24 6903.47 3433.22ZM6899.8 3433.02C6899.8 3427.66 6901.63 3423.66 6905.28 3421.02 6908.94 3418.38 6914.53 3417.06 6922.05 3417.06 6929.77 3417.06 6935.61 3418.46 6939.57 3421.26 6943.53 3424.06 6945.51 3428.18 6945.51 3433.61 6945.51 3438.98 6943.65 3442.94 6939.93 3445.5 6936.21 3448.07 6930.59 3449.35 6923.06 3449.35 6915.52 3449.35 6909.75 3447.92 6905.77 3445.06 6901.79 3442.2 6899.8 3438.19 6899.8 3433.02Z" fill-rule="evenodd"/><text fill="#000000" fill-opacity="0" font-family="Arial,Arial_MSFontService,sans-serif" font-size="32.2896" x="6899.8" y="3445.31">𝟎</text><path d="M6428.88 2276.65 6471.37 2276.65 6470.7 2279.62 6433.01 2332.63 6444.42 2332.63C6446.1 2332.63 6447.44 2332.38 6448.44 2331.89 6449.44 2331.39 6450.61 2330.22 6451.94 2328.36 6453.28 2326.5 6454.48 2324.15 6455.56 2321.31L6461.44 2321.31 6457.85 2337.97 6414.99 2337.97 6415.62 2335.01 6453.31 2282 6442.35 2282C6441.09 2282 6440.14 2282.09 6439.48 2282.27 6438.82 2282.45 6438.21 2282.73 6437.66 2283.1 6437.1 2283.48 6436.47 2284.07 6435.75 2284.88 6435.03 2285.68 6434.23 2286.84 6433.35 2288.36 6432.46 2289.87 6431.78 2291.22 6431.3 2292.42L6425.42 2292.42Z" fill-rule="evenodd"/><text fill="#000000" fill-opacity="0" font-family="Arial,Arial_MSFontService,sans-serif" font-size="61.3184" x="6414.99" y="2330.31">𝒁</text><path d="M6492.43 2315.16C6490.88 2315.16 6489.66 2315.84 6488.77 2317.2 6487.87 2318.57 6487.23 2320.59 6486.84 2323.29 6486.44 2325.98 6486.25 2329.49 6486.25 2333.81 6486.25 2338.6 6486.46 2342.42 6486.89 2345.26 6487.31 2348.09 6487.98 2350.18 6488.9 2351.52 6489.81 2352.86 6491.04 2353.53 6492.56 2353.53 6493.39 2353.53 6494.12 2353.33 6494.74 2352.93 6495.36 2352.52 6495.92 2351.89 6496.41 2351.03 6496.9 2350.17 6497.32 2349.02 6497.67 2347.59 6498.02 2346.17 6498.27 2344.39 6498.42 2342.26 6498.57 2340.14 6498.65 2337.76 6498.65 2335.15 6498.65 2331.24 6498.5 2327.96 6498.21 2325.3 6497.91 2322.64 6497.49 2320.59 6496.95 2319.15 6496.4 2317.71 6495.76 2316.68 6495.02 2316.07 6494.27 2315.46 6493.41 2315.16 6492.43 2315.16ZM6492.63 2311.49C6497.99 2311.49 6502 2313.32 6504.63 2316.97 6507.27 2320.63 6508.59 2326.22 6508.59 2333.74 6508.59 2341.46 6507.19 2347.3 6504.39 2351.26 6501.59 2355.22 6497.47 2357.2 6492.04 2357.2 6486.67 2357.2 6482.71 2355.34 6480.15 2351.62 6477.58 2347.9 6476.3 2342.28 6476.3 2334.75 6476.3 2327.21 6477.73 2321.44 6480.59 2317.46 6483.45 2313.48 6487.46 2311.49 6492.63 2311.49Z" fill-rule="evenodd"/><text fill="#000000" fill-opacity="0" font-family="Arial,Arial_MSFontService,sans-serif" font-size="45.7026" x="6476.3" y="2351.48">𝟎</text><path d="M6428.88 3968.93 6471.37 3968.93 6470.7 3971.9 6433.01 4024.91 6444.42 4024.91C6446.1 4024.91 6447.44 4024.66 6448.44 4024.17 6449.44 4023.67 6450.61 4022.5 6451.94 4020.64 6453.28 4018.78 6454.48 4016.43 6455.56 4013.59L6461.44 4013.59 6457.85 4030.25 6414.99 4030.25 6415.62 4027.29 6453.31 3974.28 6442.35 3974.28C6441.09 3974.28 6440.14 3974.37 6439.48 3974.55 6438.82 3974.73 6438.21 3975.01 6437.66 3975.38 6437.1 3975.75 6436.47 3976.35 6435.75 3977.16 6435.03 3977.96 6434.23 3979.12 6433.35 3980.64 6432.46 3982.15 6431.78 3983.5 6431.3 3984.7L6425.42 3984.7Z" fill-rule="evenodd"/><text fill="#000000" fill-opacity="0" font-family="Arial,Arial_MSFontService,sans-serif" font-size="61.3184" x="6414.99" y="4022.59">𝒁</text><path d="M6492.43 4007.44C6490.88 4007.44 6489.66 4008.12 6488.77 4009.48 6487.87 4010.85 6487.23 4012.87 6486.84 4015.57 6486.44 4018.26 6486.25 4021.77 6486.25 4026.08 6486.25 4030.88 6486.46 4034.7 6486.89 4037.54 6487.31 4040.37 6487.98 4042.46 6488.9 4043.8 6489.81 4045.14 6491.04 4045.81 6492.56 4045.81 6493.39 4045.81 6494.12 4045.61 6494.74 4045.21 6495.36 4044.8 6495.92 4044.17 6496.41 4043.31 6496.9 4042.45 6497.32 4041.3 6497.67 4039.87 6498.02 4038.45 6498.27 4036.67 6498.42 4034.54 6498.57 4032.42 6498.65 4030.04 6498.65 4027.43 6498.65 4023.52 6498.5 4020.24 6498.21 4017.58 6497.91 4014.92 6497.49 4012.87 6496.95 4011.43 6496.4 4009.99 6495.76 4008.96 6495.02 4008.35 6494.27 4007.74 6493.41 4007.44 6492.43 4007.44ZM6492.63 4003.77C6497.99 4003.77 6502 4005.6 6504.63 4009.25 6507.27 4012.91 6508.59 4018.5 6508.59 4026.02 6508.59 4033.74 6507.19 4039.58 6504.39 4043.54 6501.59 4047.5 6497.47 4049.48 6492.04 4049.48 6486.67 4049.48 6482.71 4047.62 6480.15 4043.9 6477.58 4040.18 6476.3 4034.56 6476.3 4027.03 6476.3 4019.49 6477.73 4013.72 6480.59 4009.74 6483.45 4005.76 6487.46 4003.77 6492.63 4003.77Z" fill-rule="evenodd"/><text fill="#000000" fill-opacity="0" font-family="Arial,Arial_MSFontService,sans-serif" font-size="45.7026" x="6476.3" y="4043.76">𝟎</text><path d="M6.87504 34.375 6.87568 553.708-6.87432 553.708-6.87496 34.375ZM-20.6249 41.25 0 0 20.6251 41.25ZM20.6257 546.833 0.000721785 588.083-20.6243 546.833Z" transform="matrix(-1.83697e-16 -1 -1 1.83697e-16 6789.08 2164)"/><text font-family="Aptos,Aptos_MSFontService,sans-serif" font-weight="700" font-size="110" transform="matrix(1 0 0 1 6420.52 2134)">λ</text><text font-family="Aptos,Aptos_MSFontService,sans-serif" font-weight="700" font-size="110" transform="matrix(1 0 0 1 6474.94 2134)">/4</text><path d="M6.87504 34.375 6.87568 553.708-6.87432 553.708-6.87496 34.375ZM-20.6249 41.25 0 0 20.6251 41.25ZM20.6257 546.833 0.000721785 588.083-20.6243 546.833Z" transform="matrix(-1.83697e-16 -1 -1 1.83697e-16 6787.08 4121)"/><text font-family="Aptos,Aptos_MSFontService,sans-serif" font-weight="700" font-size="110" transform="matrix(1 0 0 1 6396.97 4248)">λ</text><text font-family="Aptos,Aptos_MSFontService,sans-serif" font-weight="700" font-size="110" transform="matrix(1 0 0 1 6451.4 4248)">/4</text><path d="M6.87504 34.375 6.87568 553.708-6.87432 553.708-6.87496 34.375ZM-20.6249 41.25 0 0 20.6251 41.25ZM20.6257 546.833 0.000721785 588.083-20.6243 546.833Z" transform="matrix(-1 1.22465e-16 1.22465e-16 1 7013 2471)"/><path d="M6.87504 34.375 6.87568 553.708-6.87432 553.708-6.87496 34.375ZM-20.6249 41.25 0 0 20.6251 41.25ZM20.6257 546.833 0.000721785 588.083-20.6243 546.833Z" transform="matrix(-1 1.22465e-16 1.22465e-16 1 7012 3229)"/><text font-family="Aptos,Aptos_MSFontService,sans-serif" font-weight="700" font-size="110" transform="matrix(1 0 0 1 7041.76 2807)">λ</text><text font-family="Aptos,Aptos_MSFontService,sans-serif" font-weight="700" font-size="110" transform="matrix(1 0 0 1 7096.18 2807)">/4</text><text font-family="Aptos,Aptos_MSFontService,sans-serif" font-weight="700" font-size="110" transform="matrix(1 0 0 1 7036.26 3571)">λ</text><text font-family="Aptos,Aptos_MSFontService,sans-serif" font-weight="700" font-size="110" transform="matrix(1 0 0 1 7090.68 3571)">/4</text><path d="M0 0 324.803 0.000360892" stroke="#000000" stroke-width="13.75" stroke-miterlimit="8" fill="none" fill-rule="evenodd" transform="matrix(-1.83697e-16 -1 -1 1.83697e-16 6890 4330.8)"/><path d="M0 26C-3.31014e-15 11.6406 11.6406-3.31014e-15 26-6.62028e-15 40.3593-1.32406e-14 51.9999 11.6406 51.9999 26 51.9999 40.3593 40.3593 51.9999 26 51.9999 11.6406 51.9999-1.65507e-14 40.3593 0 26Z" stroke="#000000" stroke-width="13.75" stroke-miterlimit="8" fill-rule="evenodd" transform="matrix(-1.83697e-16 -1 -1 1.83697e-16 6916 4378)"/><path d="M7266.77 3126 6890 3126" stroke="#000000" stroke-width="13.75" stroke-miterlimit="8" fill="none" fill-rule="evenodd"/><path d="M7322 3126C7322 3140.36 7310.14 3152 7295.5 3152 7280.86 3152 7269 3140.36 7269 3126 7269 3111.64 7280.86 3100 7295.5 3100 7310.14 3100 7322 3111.64 7322 3126Z" stroke="#000000" stroke-width="13.75" stroke-miterlimit="8" fill="none" fill-rule="evenodd"/><path d="M0 0 192.849 0.000360892" stroke="#000000" stroke-width="13.75" stroke-miterlimit="8" fill="none" fill-rule="evenodd" transform="matrix(1 0 0 -1 5876 2301)"/><path d="M0 26C-3.31014e-15 11.6406 11.6406-3.31014e-15 26-6.62028e-15 40.3593-1.32406e-14 51.9999 11.6406 51.9999 26 51.9999 40.3593 40.3593 51.9999 26 51.9999 11.6406 51.9999-1.65507e-14 40.3593 0 26Z" stroke="#000000" stroke-width="13.75" stroke-miterlimit="8" fill-rule="evenodd" transform="matrix(1 0 0 -1 5832 2327)"/><path d="M0 0 192.849 0.000360892" stroke="#000000" stroke-width="13.75" stroke-miterlimit="8" fill="none" fill-rule="evenodd" transform="matrix(1 0 0 -1 5876 3999)"/><path d="M0 26C-3.31014e-15 11.6406 11.6406-3.31014e-15 26-6.62028e-15 40.3593-1.32406e-14 51.9999 11.6406 51.9999 26 51.9999 40.3593 40.3593 51.9999 26 51.9999 11.6406 51.9999-1.65507e-14 40.3593 0 26Z" stroke="#000000" stroke-width="13.75" stroke-miterlimit="8" fill-rule="evenodd" transform="matrix(1 0 0 -1 5832 4025)"/><path d="M5422.27 2138.97 5464.76 2138.97 5464.09 2141.93 5426.4 2194.94 5437.81 2194.94C5439.49 2194.94 5440.83 2194.69 5441.83 2194.2 5442.83 2193.7 5444 2192.53 5445.33 2190.67 5446.67 2188.82 5447.87 2186.46 5448.95 2183.62L5454.83 2183.62 5451.24 2200.29 5408.38 2200.29 5409.01 2197.32 5446.7 2144.31 5435.74 2144.31C5434.48 2144.31 5433.53 2144.4 5432.87 2144.58 5432.21 2144.76 5431.6 2145.04 5431.05 2145.41 5430.49 2145.79 5429.86 2146.38 5429.14 2147.19 5428.42 2148 5427.62 2149.16 5426.74 2150.67 5425.85 2152.18 5425.17 2153.54 5424.69 2154.73L5418.81 2154.73Z" fill-rule="evenodd"/><text fill="#000000" fill-opacity="0" font-family="Arial,Arial_MSFontService,sans-serif" font-size="61.3184" x="5408.38" y="2192.62">𝒁</text><path d="M5485.82 2177.47C5484.27 2177.47 5483.05 2178.15 5482.16 2179.51 5481.26 2180.88 5480.62 2182.91 5480.23 2185.6 5479.83 2188.29 5479.64 2191.8 5479.64 2196.12 5479.64 2200.92 5479.85 2204.73 5480.28 2207.57 5480.7 2210.4 5481.37 2212.49 5482.29 2213.83 5483.2 2215.17 5484.43 2215.84 5485.95 2215.84 5486.78 2215.84 5487.51 2215.64 5488.13 2215.24 5488.75 2214.84 5489.31 2214.2 5489.8 2213.34 5490.29 2212.48 5490.71 2211.34 5491.06 2209.91 5491.41 2208.48 5491.66 2206.7 5491.81 2204.57 5491.96 2202.45 5492.04 2200.08 5492.04 2197.46 5492.04 2193.55 5491.89 2190.27 5491.6 2187.61 5491.3 2184.95 5490.88 2182.9 5490.34 2181.46 5489.79 2180.02 5489.15 2179 5488.41 2178.39 5487.66 2177.78 5486.8 2177.47 5485.82 2177.47ZM5486.02 2173.81C5491.38 2173.81 5495.39 2175.63 5498.02 2179.29 5500.66 2182.94 5501.98 2188.53 5501.98 2196.05 5501.98 2203.77 5500.58 2209.61 5497.78 2213.57 5494.98 2217.53 5490.86 2219.51 5485.43 2219.51 5480.06 2219.51 5476.1 2217.65 5473.54 2213.93 5470.97 2210.21 5469.69 2204.59 5469.69 2197.07 5469.69 2189.52 5471.12 2183.76 5473.98 2179.78 5476.84 2175.8 5480.85 2173.81 5486.02 2173.81Z" fill-rule="evenodd"/><text fill="#000000" fill-opacity="0" font-family="Arial,Arial_MSFontService,sans-serif" font-size="45.7026" x="5469.69" y="2213.8">𝟎</text><path d="M5136 2306 5136 2357.73" stroke="#000000" stroke-width="13.75" stroke-miterlimit="8" fill="none" fill-rule="evenodd"/><path d="M5091 2358 5181.2 2358" stroke="#000000" stroke-width="13.75" stroke-miterlimit="8" fill="none" fill-rule="evenodd"/><path d="M5109 2379 5163.28 2379" stroke="#000000" stroke-width="13.75" stroke-miterlimit="8" fill="none" fill-rule="evenodd"/><path d="M5123 2398 5151.8 2398" stroke="#000000" stroke-width="13.75" stroke-miterlimit="8" fill="none" fill-rule="evenodd"/><rect x="5323.5" y="2242.5" width="300" height="121" stroke="#000000" stroke-width="20.625" stroke-miterlimit="8" fill="none"/><path d="M5129 2302 5322.77 2302" stroke="#000000" stroke-width="13.75" stroke-miterlimit="8" fill="none" fill-rule="evenodd"/><path d="M5634 2301 5827.77 2301" stroke="#000000" stroke-width="13.75" stroke-miterlimit="8" fill="none" fill-rule="evenodd"/><text font-family="Aptos,Aptos_MSFontService,sans-serif" font-weight="700" font-size="110" transform="matrix(1 0 0 1 7352.23 3167)">OUTPUT</text><path d="M5420.89 3837.12 5463.39 3837.12 5462.71 3840.08 5425.02 3893.09 5436.43 3893.09C5438.11 3893.09 5439.45 3892.84 5440.45 3892.35 5441.46 3891.85 5442.62 3890.68 5443.96 3888.82 5445.29 3886.96 5446.49 3884.61 5447.57 3881.77L5453.46 3881.77 5449.86 3898.43 5407.01 3898.43 5407.64 3895.47 5445.33 3842.46 5434.37 3842.46C5433.11 3842.46 5432.15 3842.55 5431.49 3842.73 5430.83 3842.91 5430.23 3843.19 5429.67 3843.56 5429.12 3843.94 5428.48 3844.53 5427.76 3845.34 5427.04 3846.14 5426.24 3847.3 5425.36 3848.82 5424.48 3850.33 5423.79 3851.68 5423.31 3852.88L5417.43 3852.88Z" fill-rule="evenodd"/><text fill="#000000" fill-opacity="0" font-family="Arial,Arial_MSFontService,sans-serif" font-size="61.3184" x="5407.01" y="3890.77">𝒁</text><path d="M5484.44 3875.62C5482.9 3875.62 5481.67 3876.3 5480.78 3877.66 5479.89 3879.03 5479.24 3881.05 5478.85 3883.75 5478.46 3886.44 5478.26 3889.95 5478.26 3894.27 5478.26 3899.06 5478.47 3902.88 5478.9 3905.72 5479.33 3908.55 5480 3910.64 5480.91 3911.98 5481.83 3913.32 5483.05 3913.99 5484.58 3913.99 5485.4 3913.99 5486.13 3913.79 5486.75 3913.39 5487.37 3912.98 5487.93 3912.35 5488.42 3911.49 5488.91 3910.63 5489.33 3909.48 5489.68 3908.06 5490.03 3906.63 5490.28 3904.85 5490.43 3902.72 5490.58 3900.6 5490.66 3898.22 5490.66 3895.61 5490.66 3891.7 5490.51 3888.42 5490.22 3885.76 5489.92 3883.1 5489.5 3881.05 5488.96 3879.61 5488.41 3878.17 5487.77 3877.15 5487.03 3876.53 5486.29 3875.92 5485.43 3875.62 5484.44 3875.62ZM5484.64 3871.95C5490.01 3871.95 5494.01 3873.78 5496.65 3877.43 5499.29 3881.09 5500.61 3886.68 5500.61 3894.2 5500.61 3901.92 5499.2 3907.76 5496.4 3911.72 5493.6 3915.68 5489.48 3917.66 5484.05 3917.66 5478.69 3917.66 5474.72 3915.8 5472.16 3912.08 5469.6 3908.36 5468.32 3902.74 5468.32 3895.21 5468.32 3887.67 5469.75 3881.91 5472.6 3877.92 5475.46 3873.94 5479.47 3871.95 5484.64 3871.95Z" fill-rule="evenodd"/><text fill="#000000" fill-opacity="0" font-family="Arial,Arial_MSFontService,sans-serif" font-size="45.7026" x="5468.32" y="3911.94">𝟎</text><path d="M5135 4004 5135 4055.73" stroke="#000000" stroke-width="13.75" stroke-miterlimit="8" fill="none" fill-rule="evenodd"/><path d="M5090 4056 5180.2 4056" stroke="#000000" stroke-width="13.75" stroke-miterlimit="8" fill="none" fill-rule="evenodd"/><path d="M5108 4077 5162.28 4077" stroke="#000000" stroke-width="13.75" stroke-miterlimit="8" fill="none" fill-rule="evenodd"/><path d="M5121 4096 5149.8 4096" stroke="#000000" stroke-width="13.75" stroke-miterlimit="8" fill="none" fill-rule="evenodd"/><rect x="5321.5" y="3940.5" width="300" height="121" stroke="#000000" stroke-width="20.625" stroke-miterlimit="8" fill="none"/><path d="M5127 4001 5320.77 4001" stroke="#000000" stroke-width="13.75" stroke-miterlimit="8" fill="none" fill-rule="evenodd"/><path d="M5632 3999 5825.77 3999" stroke="#000000" stroke-width="13.75" stroke-miterlimit="8" fill="none" fill-rule="evenodd"/><path d="M6889 1972 6889 2296.8" stroke="#000000" stroke-width="13.75" stroke-miterlimit="8" fill="none" fill-rule="evenodd"/><path d="M6889 1926C6903.36 1926 6915 1937.64 6915 1952 6915 1966.36 6903.36 1978 6889 1978 6874.64 1978 6863 1966.36 6863 1952 6863 1937.64 6874.64 1926 6889 1926Z" stroke="#000000" stroke-width="13.75" stroke-miterlimit="8" fill-rule="evenodd"/><path d="M3911.5 1663.5 4406.5 1951 3911.5 2238.5Z" stroke="#000000" stroke-width="20.625" stroke-miterlimit="8" fill="none" fill-rule="evenodd"/><path d="M4406 1951 6874.5 1951" stroke="#000000" stroke-width="13.75" stroke-miterlimit="8" fill="none" fill-rule="evenodd"/><path d="M1436 1944 3904.5 1944" stroke="#000000" stroke-width="13.75" stroke-miterlimit="8" fill="none" fill-rule="evenodd"/><path d="M3938.5 4063.5 4433.5 4350.5 3938.5 4637.5Z" stroke="#000000" stroke-width="20.625" stroke-miterlimit="8" fill="none" fill-rule="evenodd"/><path d="M4433 4350 6901.5 4350" stroke="#000000" stroke-width="13.75" stroke-miterlimit="8" fill="none" fill-rule="evenodd"/><path d="M1463 4344 3931.5 4344" stroke="#000000" stroke-width="13.75" stroke-miterlimit="8" fill="none" fill-rule="evenodd"/><rect x="1153.5" y="1191.5" width="2151" height="3504" stroke="#0070C0" stroke-width="20.625" stroke-miterlimit="8" stroke-dasharray="82.5 61.875" fill="none"/><text fill="#0070C0" font-family="Aptos,Aptos_MSFontService,sans-serif" font-weight="700" font-size="147" transform="matrix(1 0 0 1 1712.65 1558)">DIVISIÓN </text><text fill="#0070C0" font-family="Aptos,Aptos_MSFontService,sans-serif" font-weight="700" font-size="147" transform="matrix(1 0 0 1 2367.49 1558)">-</text><text fill="#0070C0" font-family="Aptos,Aptos_MSFontService,sans-serif" font-weight="700" font-size="147" transform="matrix(1 0 0 1 2447.13 1558)">GYSEL</text><rect x="5056.5" y="1191.5" width="2152" height="3509" stroke="#0070C0" stroke-width="20.625" stroke-miterlimit="8" stroke-dasharray="82.5 61.875" fill="none"/><text fill="#0070C0" font-family="Aptos,Aptos_MSFontService,sans-serif" font-weight="700" font-size="147" transform="matrix(1 0 0 1 5351.63 1558)">COMBINACIÓN </text><text fill="#0070C0" font-family="Aptos,Aptos_MSFontService,sans-serif" font-weight="700" font-size="147" transform="matrix(1 0 0 1 6402.15 1558)">-</text><text fill="#0070C0" font-family="Aptos,Aptos_MSFontService,sans-serif" font-weight="700" font-size="147" transform="matrix(1 0 0 1 6481.79 1558)">GYSEL</text><rect x="3358.5" y="1191.5" width="1647" height="3509" stroke="#C00000" stroke-width="20.625" stroke-miterlimit="8" stroke-dasharray="82.5 61.875" fill="none"/><text fill="#C00000" font-family="Aptos,Aptos_MSFontService,sans-serif" font-weight="700" font-size="147" transform="matrix(1 0 0 1 3585.18 1558)">AMPLIFICACIÓN</text></g></svg>